<svg width="120" height="120" viewBox="0 0 120 120" fill="none" xmlns="http://www.w3.org/2000/svg">
<path d="M20 8C20 5.7905 21.7905 4 24 4H112C114.21 4 116 5.7905 116 8V56H68V60H116V64C116 66.2095 114.21 68 112 68H68V72H76.614L81.114 84H68V88H90V84H85.386L80.886 72H112C116.418 72 120 68.418 120 64V8C120 3.582 116.418 0 112 0H24C19.582 0 16 3.582 16 8V32H20V8Z" fill="white"/>
<path d="M2 120H48C48.5305 120 49.038 119.788 49.414 119.414L63.414 105.414C63.581 105.244 63.7175 105.046 63.814 104.828C63.8425 104.766 63.859 104.706 63.88 104.641C63.9375 104.474 63.9725 104.299 63.9845 104.122C63.9845 104.08 64.0075 104.043 64.0075 104V38C64.0075 36.895 63.1125 36 62.0075 36H2C0.895 36 0 36.895 0 38V118C0 119.105 0.895 120 2 120ZM50 113.172V106H57.172L50 113.172ZM4 40H60V102H48C46.895 102 46 102.895 46 104V116H4V40Z" fill="white"/>
<path d="M8 44H16V48H8V44Z" fill="white"/>
<path d="M8 52H16V56H8V52Z" fill="white"/>
<path d="M60 26H92V30H60V26Z" fill="white"/>
<path d="M68 36H84V40H68V36Z" fill="white"/>
<path d="M76 16H108V20H76V16Z" fill="white"/>
<path d="M88 36H108V40H88V36Z" fill="white"/>
<path d="M68 46H92V50H68V46Z" fill="white"/>
<path d="M96 46H108V50H96V46Z" fill="white"/>
<path d="M96 26H108V30H96V26Z" fill="white"/>
<path d="M60 16H72V20H60V16Z" fill="white"/>
<path d="M43.0305 71.714C43.632 71.3525 43.9995 70.7025 43.9995 70C43.9995 69.2975 43.632 68.6475 43.0305 68.286L34 62.868V60H35C38.866 60 42 56.866 42 53C42 49.134 38.866 46 35 46H29C25.134 46 22 49.134 22 53C22 56.866 25.134 60 29 60H30V62.868L20.9695 68.286C20.368 68.6475 20.0005 69.2975 20.0005 70C20.0005 70.7025 20.368 71.3525 20.9695 71.714L30 77.132V80H22C20.895 80 20 80.895 20 82V92C20 93.105 20.895 94 22 94H30V98H29C25.134 98 22 101.134 22 105C22 108.866 25.134 112 29 112H35C38.866 112 42 108.866 42 105C42 101.134 38.866 98 35 98H34V94H42C43.105 94 44 93.105 44 92V82C44 80.895 43.105 80 42 80H34V77.132L43.0305 71.714ZM29 56C27.343 56 26 54.657 26 53C26 51.343 27.343 50 29 50H35C36.657 50 38 51.343 38 53C38 54.657 36.657 56 35 56H29ZM35 102C36.657 102 38 103.343 38 105C38 106.657 36.657 108 35 108H29C27.343 108 26 106.657 26 105C26 103.343 27.343 102 29 102H35ZM40 84V90H24V84H40ZM32 73.668L25.886 70L32 66.332L38.114 70L32 73.668Z" fill="white"/>
<path d="M24 8H28V12H24V8Z" fill="white"/>
<path d="M32 8H36V12H32V8Z" fill="white"/>
<path d="M40 8H44V12H40V8Z" fill="white"/>
<path d="M70 120H118C119.105 120 120 119.105 120 118V94C120 92.895 119.105 92 118 92H70C68.895 92 68 92.895 68 94V118C68 119.105 68.895 120 70 120ZM72 96H116V116H72V96Z" fill="white"/>
<path d="M76 108H80V112H76V108Z" fill="white"/>
<path d="M108 108H112V112H108V108Z" fill="white"/>
<path d="M76 100H80V104H76V100Z" fill="white"/>
<path d="M84 100H88V104H84V100Z" fill="white"/>
<path d="M92 100H96V104H92V100Z" fill="white"/>
<path d="M100 100H104V104H100V100Z" fill="white"/>
<path d="M108 100H112V104H108V100Z" fill="white"/>
<path d="M84 108H104V112H84V108Z" fill="white"/>
<path d="M30.5861 16.586L24.5861 22.586C23.8056 23.3675 23.8056 24.6325 24.5861 25.414L30.5861 31.414L33.4141 28.586L28.8281 24L33.4141 19.414L30.5861 16.586Z" fill="white"/>
<path d="M49.4139 31.414L55.4139 25.414C56.1944 24.6325 56.1944 23.3675 55.4139 22.586L49.4139 16.586L46.5859 19.414L51.1719 24L46.5859 28.586L49.4139 31.414Z" fill="white"/>
<path d="M36.0596 31.5155L40.0591 15.5155L43.9376 16.485L39.9376 32.485L36.0596 31.5155Z" fill="white"/>
</svg>
