<svg width="160" height="117" viewBox="0 0 160 117" fill="none" xmlns="http://www.w3.org/2000/svg">
<path d="M156.547 95.52H151.24V13.2667C151.231 5.94347 145.297 0.00928676 137.973 0H21.2267C13.9035 0.00928676 7.96929 5.94347 7.96 13.2667V95.52H2.65333C1.18737 95.52 0 96.7074 0 98.1734V106.133C0 111.995 4.75212 116.747 10.6133 116.747H148.587C154.448 116.747 159.2 111.995 159.2 106.133V98.1734C159.2 96.7074 158.013 95.52 156.547 95.52ZM13.2667 13.2667C13.2667 8.87142 16.8314 5.30667 21.2267 5.30667H137.973C142.369 5.30667 145.933 8.87142 145.933 13.2667V95.52H140.627V18.5733C140.627 14.1781 137.062 10.6133 132.667 10.6133H26.5333C22.1381 10.6133 18.5733 14.1781 18.5733 18.5733V95.52H13.2667V13.2667ZM135.32 18.5733V95.52H95.8331C93.0007 95.5041 90.409 97.1047 89.152 99.6407C88.7938 100.37 88.0476 100.832 87.2337 100.827H71.9531C71.1385 100.832 70.3943 100.37 70.0348 99.6407C68.7797 97.1081 66.1934 95.5101 63.3669 95.52H23.88V18.5733C23.88 17.1074 25.0674 15.92 26.5333 15.92H132.667C134.133 15.92 135.32 17.1074 135.32 18.5733ZM153.893 106.133C153.893 109.065 151.518 111.44 148.587 111.44H10.6133C7.68207 111.44 5.30667 109.065 5.30667 106.133V100.827H63.3669C64.1815 100.821 64.9258 101.283 65.2853 102.013C66.5403 104.545 69.1266 106.143 71.9531 106.133H87.2469C90.0794 106.149 92.671 104.549 93.928 102.013C94.2856 101.287 95.0232 100.827 95.8331 100.827H153.893V106.133Z" fill="white"/>
<path d="M79.6001 31.84C65.2814 31.8466 51.9311 39.0663 44.0865 51.0441C36.2433 63.0233 34.9617 78.148 40.681 91.2747L45.5445 89.152C43.8637 85.2841 42.864 81.1548 42.5874 76.9467H47.8795C48.3106 82.195 50.0446 87.2515 52.9208 91.6627L57.3685 88.7639C50.1547 77.6723 52.2144 62.9603 62.1995 54.2779C72.1834 45.5942 87.0374 45.5942 97.0226 54.2779C107.006 62.9603 109.068 77.6723 101.854 88.7639L106.3 91.6627C109.17 87.2496 110.896 82.1923 111.321 76.9467H116.613C116.336 81.1548 115.337 85.2841 113.656 89.152L118.519 91.2747C124.238 78.148 122.957 63.0233 115.114 51.0441C107.269 39.0663 93.9188 31.8466 79.6001 31.84ZM47.8941 71.64H42.5874C43.1532 63.6468 46.3007 56.0516 51.5597 50.0054L55.3095 53.7532C51.031 58.7965 48.44 65.0498 47.8941 71.64ZM76.9468 42.5873C70.3565 43.1332 64.1033 45.7242 59.06 50.0027L55.3121 46.2529C61.3584 40.994 68.9536 37.8465 76.9468 37.2806V42.5873ZM100.14 50.0027C95.0969 45.7242 88.8437 43.1332 82.2534 42.5873V37.2806C90.2466 37.8465 97.8418 40.994 103.888 46.2529L100.14 50.0027ZM111.306 71.64C110.76 65.0498 108.169 58.7965 103.891 53.7532L107.641 50.0054C112.899 56.0516 116.047 63.6468 116.613 71.64H111.306Z" fill="white"/>
<path d="M83.0094 67.1293C81.9474 66.6113 80.7813 66.3387 79.5999 66.3333C75.2046 66.3333 71.6399 69.8981 71.6399 74.2934C71.6399 78.6886 75.2046 82.2534 79.5999 82.2534C83.9951 82.2534 87.5599 78.6886 87.5599 74.2934C87.5546 73.112 87.282 71.9458 86.7639 70.8838L97.3978 60.2493L93.646 56.4974L83.0094 67.1293ZM79.5999 76.9467C78.1339 76.9467 76.9466 75.7593 76.9466 74.2934C76.9466 72.8274 78.1339 71.64 79.5999 71.64C81.0659 71.64 82.2532 72.8274 82.2532 74.2934C82.2532 75.7593 81.0659 76.9467 79.5999 76.9467Z" fill="white"/>
<path d="M68.9868 87.56H82.2535V92.8667H68.9868V87.56Z" fill="white"/>
<path d="M87.5601 87.56H92.8667V92.8667H87.5601V87.56Z" fill="white"/>
<path d="M29.1868 21.2267H34.4934V26.5333H29.1868V21.2267Z" fill="white"/>
<path d="M50.4133 21.2267H55.72V26.5333H50.4133V21.2267Z" fill="white"/>
<path d="M29.1868 31.84H42.4534V37.1466H29.1868V31.84Z" fill="white"/>
<path d="M106.134 21.2267H130.014V26.5333H106.134V21.2267Z" fill="white"/>
<path d="M114.094 31.84H130.014V37.1466H114.094V31.84Z" fill="white"/>
<path d="M39.8 21.2267H45.1067V26.5333H39.8V21.2267Z" fill="white"/>
</svg>
