<svg width="120" height="120" viewBox="0 0 120 120" fill="none" xmlns="http://www.w3.org/2000/svg">
<g clip-path="url(#clip0)">
<path d="M110 0H34.0041C28.4848 0.00651737 24.0114 4.47945 24.0044 9.99917V59.9975H28.0041V9.99917C28.0041 6.68583 30.6907 4.00067 34.0041 4.00067H110C113.315 4.00067 116 6.68583 116 9.99917V73.9963C116 77.3097 113.315 79.9963 110 79.9963H60.0024V83.997H110C115.52 83.9895 119.994 79.5165 120 73.9963V9.99917C119.994 4.47945 115.52 0.00651737 110 0Z" fill="white"/>
<path d="M32.0037 8.00034H36.0043V11.9995H32.0037V8.00034Z" fill="white"/>
<path d="M40.0037 8.00034H44.0033V11.9995H40.0037V8.00034Z" fill="white"/>
<path d="M48.0029 8.00034H52.0036V11.9995H48.0029V8.00034Z" fill="white"/>
<path d="M32.0037 15.9992H112V19.9998H32.0037V15.9992Z" fill="white"/>
<path d="M32.0037 45.9987C32.0037 47.1031 32.899 47.9975 34.004 47.9975H54.0023C55.1083 47.9975 56.0026 47.1031 56.0026 45.9987V25.9988C56.0026 24.8939 55.1083 23.9995 54.0023 23.9995H34.004C32.899 23.9995 32.0037 24.8939 32.0037 25.9988V45.9987ZM36.0043 27.9992H52.0035V43.9983H36.0043V27.9992Z" fill="white"/>
<path d="M84.0019 25.9988C84.0019 24.8939 83.1065 23.9995 82.0016 23.9995H62.0028C60.8983 23.9995 60.0024 24.8939 60.0024 25.9988V45.9987C60.0024 47.1031 60.8983 47.9975 62.0028 47.9975H82.0016C83.1065 47.9975 84.0019 47.1031 84.0019 45.9987V25.9988ZM80.0012 43.9983H64.0021V27.9992H80.0012V43.9983Z" fill="white"/>
<path d="M112 25.9988C112 24.8939 111.106 23.9995 110 23.9995H90.0008C88.8964 23.9995 88.0015 24.8939 88.0015 25.9988V45.9987C88.0015 47.1031 88.8964 47.9975 90.0008 47.9975H110C111.106 47.9975 112 47.1031 112 45.9987V25.9988ZM108.001 43.9983H92.0006V27.9992H108.001V43.9983Z" fill="white"/>
<path d="M32.0037 59.9975H36.0043V55.9978H56.0026V53.9975C56.0026 52.8931 55.1083 51.9982 54.0023 51.9982H34.004C32.899 51.9982 32.0037 52.8931 32.0037 53.9975V59.9975Z" fill="white"/>
<path d="M82.0015 51.9982H80.0011V71.997H64.002V75.9967H82.0015C83.1064 75.9967 84.0018 75.1008 84.0018 73.9963V53.9975C84.0018 52.8931 83.1064 51.9982 82.0015 51.9982Z" fill="white"/>
<path d="M110 51.9982H90.0008C88.8964 51.9982 88.0015 52.8931 88.0015 53.9975V73.9963C88.0015 75.1008 88.8964 75.9967 90.0008 75.9967H110C111.106 75.9967 112 75.1008 112 73.9963V53.9975C112 52.8931 111.106 51.9982 110 51.9982ZM108.001 71.997H92.0006V55.9978H108.001V71.997Z" fill="white"/>
<path d="M0.445573 64.7446C0.0630532 65.2169 -0.0833373 65.8376 0.0455063 66.4306L8.04534 102.429C8.24938 103.347 9.06556 103.998 10.0046 103.995H54.0024C55.1083 103.995 56.0027 104.891 56.0027 105.995C56.0027 107.099 55.1083 107.995 54.0024 107.995H8.00523C4.69139 107.995 2.00523 110.681 2.00523 113.995C2.00523 117.308 4.69139 119.995 8.00523 119.995C11.3196 119.995 14.0052 117.308 14.0052 113.995C13.9987 113.311 13.8739 112.636 13.6378 111.995H42.3714C42.1352 112.636 42.0099 113.311 42.0029 113.995C42.0029 117.308 44.6896 119.995 48.0029 119.995C51.3182 119.995 54.0024 117.308 54.0024 113.995C53.9974 113.311 53.872 112.636 53.6354 111.995H54.0024C57.3167 111.995 60.0024 109.308 60.0024 105.995C60.0024 102.681 57.3167 99.9962 54.0024 99.9962H52.4974L59.8971 66.6688L63.2385 59.9975H64.3705C65.3451 62.7523 68.1621 64.4042 71.0423 63.9104C73.922 63.4166 76.0266 60.9189 76.0266 57.9971C76.0266 55.0749 73.922 52.5782 71.0423 52.0844C68.1621 51.5891 65.3451 53.2425 64.3705 55.9978H62.0027C61.2417 55.9933 60.5433 56.4224 60.2029 57.1028L56.7673 63.9971H2.00523C1.39861 63.9971 0.825586 64.2714 0.445573 64.7446ZM8.00523 115.995C6.90079 115.995 6.0049 115.099 6.0049 113.995C6.0049 112.891 6.90079 111.995 8.00523 111.995C9.11018 111.995 10.0046 112.891 10.0046 113.995C10.0046 115.099 9.11018 115.995 8.00523 115.995ZM48.0029 115.995C46.8989 115.995 46.0036 115.099 46.0036 113.995C46.0036 112.891 46.8989 111.995 48.0029 111.995C49.1088 111.995 50.0032 112.891 50.0032 113.995C50.0032 115.099 49.1088 115.995 48.0029 115.995ZM70.002 55.9978C71.1075 55.9978 72.0024 56.8932 72.0024 57.9971C72.0024 59.1016 71.1075 59.9975 70.002 59.9975C68.8971 59.9975 68.0027 59.1016 68.0027 57.9971C68.0027 56.8932 68.8971 55.9978 70.002 55.9978ZM28.0041 99.9962H19.8969L19.4508 91.9958H28.0041V99.9962ZM28.0041 87.9961H19.2297L18.7845 79.9963H28.0041V87.9961ZM45.8958 67.9973H55.5099L53.7317 75.9966H45.4496L45.8958 67.9973ZM45.228 79.9963H52.8438L51.0651 87.9961H44.7833L45.228 79.9963ZM44.5622 91.9958H50.1782L48.404 99.9962H44.117L44.5622 91.9958ZM32.0037 67.9973H41.8896L41.4459 75.9966H32.0037V67.9973ZM32.0037 79.9963H41.2238L40.7796 87.9961H32.0037V79.9963ZM32.0037 91.9958H40.5575L40.1118 99.9962H32.0037V91.9958ZM28.0041 67.9973V75.9966H18.5634L18.1187 67.9973H28.0041ZM15.8908 99.9962H11.6053L9.82709 91.9958H15.4471L15.8908 99.9962ZM15.2255 87.9961H8.94323L7.16499 79.9963H14.7808L15.2255 87.9961ZM14.113 67.9973L14.5592 75.9966H6.27813L4.49938 67.9973H14.113Z" fill="white"/>
</g>
<defs>
<clipPath id="clip0">
<rect width="120" height="120" fill="white"/>
</clipPath>
</defs>
</svg>
