<svg width="175" height="31" viewBox="0 0 175 31" fill="none" xmlns="http://www.w3.org/2000/svg">
<path d="M16.1879 30.9987C16.0311 30.9987 15.8939 30.8614 15.8939 30.7044C15.8939 30.5475 16.0115 30.4101 16.1879 30.4101C17.3442 30.3905 18.5006 30.2335 19.5981 29.9392C19.7549 29.9 19.9117 29.9981 19.9509 30.1551C19.9901 30.312 19.8921 30.469 19.7353 30.5082C18.579 30.8025 17.3834 30.9791 16.1879 30.9987ZM12.4836 30.6063C12.464 30.6063 12.4444 30.6063 12.4248 30.6063C11.2489 30.3316 10.1317 29.9 9.0538 29.3702C8.9166 29.2917 8.85781 29.1152 8.9362 28.9778C9.0146 28.8405 9.19099 28.7816 9.32818 28.8601C10.3473 29.3898 11.4449 29.7823 12.562 30.0569C12.7188 30.0962 12.8168 30.2532 12.7776 30.4101C12.7384 30.5082 12.6208 30.6063 12.4836 30.6063ZM23.1064 29.1152C23.0084 29.1152 22.9104 29.0563 22.8516 28.9582C22.7732 28.8208 22.8124 28.6443 22.9692 28.5658C23.9687 27.9968 24.9095 27.3101 25.7522 26.5252C25.8698 26.4075 26.0658 26.4271 26.1638 26.5448C26.2814 26.6626 26.2618 26.8588 26.1442 26.9569C25.2623 27.781 24.2823 28.4873 23.2435 29.0759C23.2043 29.0955 23.1651 29.1152 23.1064 29.1152ZM6.13353 27.2708C6.05513 27.2708 5.99634 27.2512 5.93754 27.1923C5.72195 26.9961 5.50636 26.7999 5.31037 26.6037C4.6636 25.9562 4.07563 25.2499 3.56605 24.5043C3.46805 24.367 3.50725 24.1904 3.64445 24.0923C3.78164 23.9942 3.95803 24.0334 4.05603 24.1707C4.546 24.8771 5.11438 25.5638 5.74155 26.1917C5.93754 26.3879 6.13353 26.5841 6.34912 26.7607C6.46672 26.8784 6.48631 27.055 6.36872 27.1727C6.29032 27.2316 6.21193 27.2708 6.13353 27.2708ZM2.09612 21.3258C1.97852 21.3258 1.86093 21.2473 1.82173 21.1295C1.41015 20.0112 1.13576 18.8339 0.998567 17.6371C0.978967 17.4801 1.09656 17.3231 1.25335 17.3035C1.41015 17.2839 1.56694 17.4016 1.58654 17.5586C1.70413 18.7162 1.97852 19.8346 2.3705 20.9137C2.4293 21.0707 2.3509 21.2276 2.19411 21.2865C2.15491 21.3258 2.11572 21.3258 2.09612 21.3258ZM1.35135 14.1838C1.33175 14.1838 1.33175 14.1838 1.31215 14.1838C1.15536 14.1642 1.03776 14.0072 1.05736 13.8503C1.23376 12.6534 1.54734 11.4958 1.99812 10.3774C2.05692 10.2205 2.23331 10.142 2.3705 10.2205C2.5273 10.2793 2.58609 10.4559 2.5273 10.6129C2.09612 11.6724 1.80213 12.8104 1.62574 13.9484C1.62574 14.0857 1.50814 14.1838 1.35135 14.1838ZM4.07563 7.53242C4.01683 7.53242 3.95803 7.5128 3.89923 7.47356C3.76204 7.37546 3.74244 7.19887 3.84044 7.06153C4.27162 6.47291 4.76159 5.90391 5.29077 5.37415C5.60436 5.06022 5.95714 4.74629 6.29032 4.45198C6.40792 4.35387 6.60391 4.37349 6.70191 4.49122C6.7999 4.60894 6.7803 4.80515 6.66271 4.90325C6.32952 5.17794 5.99634 5.47225 5.70235 5.78618C5.19277 6.29632 4.7224 6.8457 4.31081 7.4147C4.25202 7.49318 4.17362 7.53242 4.07563 7.53242ZM26.301 5.88429C26.2226 5.88429 26.1442 5.86466 26.0854 5.8058C25.2623 4.98173 24.3607 4.27539 23.3807 3.66715C23.2435 3.58867 23.2043 3.39246 23.2827 3.25512C23.3611 3.11777 23.5571 3.07853 23.6943 3.15701C24.7135 3.78487 25.6542 4.53046 26.5166 5.37415C26.6342 5.49187 26.6342 5.66846 26.5166 5.78618C26.4382 5.84504 26.3794 5.88429 26.301 5.88429ZM9.62217 2.98043C9.50458 2.98043 9.40658 2.92156 9.34778 2.80384C9.26939 2.6665 9.34778 2.48991 9.48498 2.41143C10.5629 1.90129 11.7193 1.5285 12.8952 1.27343C13.052 1.23419 13.2088 1.35191 13.248 1.50888C13.2872 1.66584 13.1696 1.82281 13.0128 1.86205C11.8761 2.0975 10.7785 2.45067 9.73977 2.94118C9.72017 2.96081 9.66137 2.98043 9.62217 2.98043ZM20.1469 2.1956C20.1273 2.1956 20.0881 2.1956 20.0685 2.17598C18.9709 1.84243 17.8146 1.64622 16.6778 1.58736C16.5211 1.58736 16.3839 1.45001 16.4035 1.27343C16.4035 1.11646 16.5407 0.979118 16.717 0.998739C17.9126 1.0576 19.1081 1.27343 20.2449 1.60698C20.4017 1.64622 20.4801 1.82281 20.4409 1.97977C20.3821 2.0975 20.2645 2.1956 20.1469 2.1956Z" fill="white"/>
<path d="M15.7577 18.3054C16.8401 18.3054 17.7176 17.427 17.7176 16.3434C17.7176 15.2597 16.8401 14.3813 15.7577 14.3813C14.6752 14.3813 13.7978 15.2597 13.7978 16.3434C13.7978 17.427 14.6752 18.3054 15.7577 18.3054Z" fill="white"/>
<path d="M15.7581 18.5997C14.5234 18.5997 13.5042 17.5795 13.5042 16.3434C13.5042 15.1073 14.5234 14.087 15.7581 14.087C16.9928 14.087 18.012 15.1073 18.012 16.3434C18.012 17.5795 17.0124 18.5997 15.7581 18.5997ZM15.7581 14.6756C14.8369 14.6756 14.0922 15.4212 14.0922 16.3434C14.0922 17.2655 14.8369 18.0111 15.7581 18.0111C16.6793 18.0111 17.424 17.2655 17.424 16.3434C17.424 15.4212 16.6793 14.6756 15.7581 14.6756Z" fill="white"/>
<path d="M26.302 27.3702C26.8432 27.3702 27.282 26.931 27.282 26.3891C27.282 25.8473 26.8432 25.4081 26.302 25.4081C25.7608 25.4081 25.3221 25.8473 25.3221 26.3891C25.3221 26.931 25.7608 27.3702 26.302 27.3702Z" fill="white"/>
<path d="M26.3024 27.6645C25.9692 27.6645 25.6361 27.5271 25.4009 27.2917C24.9109 26.8012 24.9109 25.9771 25.4009 25.4866C25.6361 25.2511 25.9692 25.1138 26.3024 25.1138C26.6356 25.1138 26.9688 25.2511 27.204 25.4866C27.694 25.9771 27.694 26.8012 27.204 27.2917C26.9688 27.5468 26.6356 27.6645 26.3024 27.6645ZM26.3024 25.7024C26.126 25.7024 25.9496 25.7809 25.8124 25.8986C25.5381 26.1733 25.5381 26.605 25.8124 26.86C26.0672 27.1151 26.518 27.1151 26.7924 26.86C27.0668 26.5854 27.0668 26.1537 26.7924 25.879C26.6552 25.7809 26.4788 25.7024 26.3024 25.7024Z" fill="white"/>
<path d="M39.2183 23.4657C38.0815 23.191 37.1604 22.8182 36.4156 22.3669L38.3363 18.6782C39.9238 19.6004 41.5898 20.0517 43.3341 20.0517C43.9612 20.0517 44.4512 19.9732 44.7844 19.8162C45.1176 19.6593 45.294 19.4434 45.294 19.1884C45.294 18.9333 45.1176 18.7371 44.7844 18.5801C44.4316 18.4232 43.8828 18.2466 43.1381 18.07C42.1581 17.8149 41.335 17.5598 40.6882 17.3048C40.0414 17.0497 39.473 16.6377 38.9831 16.0883C38.4931 15.5389 38.2579 14.8326 38.2579 13.93C38.2579 12.8116 38.5519 11.8306 39.1595 10.9869C39.767 10.1432 40.6294 9.49575 41.7465 9.04447C42.8833 8.5932 44.216 8.35775 45.7448 8.35775C46.8423 8.35775 47.8811 8.47547 48.8218 8.6913C49.7822 8.90713 50.6053 9.22106 51.2913 9.63309L49.4882 13.2825C48.9002 12.9097 48.273 12.6351 47.5675 12.4585C46.8619 12.2819 46.1563 12.1838 45.4116 12.1838C44.7256 12.1838 44.1768 12.2819 43.8044 12.4781C43.4321 12.6743 43.2361 12.9097 43.2361 13.1844C43.2361 13.4591 43.4125 13.6553 43.7457 13.8123C44.0984 13.9693 44.6668 14.1458 45.4508 14.3224C46.4111 14.5579 47.2147 14.7933 47.8811 15.0484C48.5278 15.3035 49.0962 15.6959 49.5862 16.2256C50.0566 16.7554 50.3114 17.4617 50.3114 18.3447C50.3114 19.4434 50.0174 20.4048 49.4098 21.2485C48.8022 22.0726 47.9399 22.7201 46.8031 23.191C45.6664 23.6422 44.3532 23.8777 42.8245 23.8777C41.5506 23.8777 40.355 23.7404 39.2183 23.4657Z" fill="white"/>
<path d="M54.7016 23.2106C53.7412 22.7593 52.9965 22.1315 52.4869 21.3074C51.9773 20.4833 51.7225 19.5219 51.7225 18.4232C51.7225 17.9719 51.7813 17.4421 51.8989 16.8535L53.5256 8.6913H58.5234L56.9163 16.7554C56.8379 17.1478 56.7987 17.5206 56.7987 17.8345C56.7987 18.5016 56.9751 18.9922 57.3082 19.3257C57.6414 19.6593 58.1314 19.8162 58.7978 19.8162C59.5229 19.8162 60.1109 19.5808 60.5029 19.1099C60.9145 18.639 61.2281 17.8542 61.4633 16.7554L63.0704 8.6913H67.9702L66.265 17.0693C65.8143 19.3061 64.9127 21.0131 63.5604 22.1511C62.208 23.2891 60.4049 23.8581 58.151 23.8581C56.8183 23.8777 55.6619 23.6423 54.7016 23.2106Z" fill="white"/>
<path d="M82.2187 17.0497C82.5715 17.5402 82.7283 18.1288 82.7283 18.7959C82.7283 20.3656 82.0815 21.5428 80.788 22.3277C79.4944 23.1125 78.8869 23.5049 75.8098 23.5049H67.2646L70.2241 8.67168H78.0833C79.8276 8.67168 81.1407 8.98561 82.0423 9.59385C82.9439 10.2021 83.3946 11.085 83.3946 12.2034C83.3946 13.0275 83.1595 13.7731 82.6891 14.4009C82.2187 15.0288 81.5719 15.5193 80.7488 15.8725C81.3955 16.1864 81.8855 16.5788 82.2187 17.0497ZM77.3189 19.6789C77.6325 19.4434 77.7893 19.1099 77.7893 18.6782C77.7893 18.3643 77.6717 18.1288 77.4365 17.9523C77.2013 17.7757 76.9073 17.6972 76.5546 17.6972H73.3403L72.8895 20.032H76.1038C76.6134 20.032 77.0249 19.9143 77.3189 19.6789ZM74.4575 12.2034L74.0067 14.4009H76.5546C77.6521 14.4009 78.2009 13.9693 78.2009 13.106C78.2009 12.8116 78.0833 12.5762 77.8677 12.4192C77.6325 12.2623 77.3189 12.1838 76.8877 12.1838H74.4575V12.2034Z" fill="white"/>
<path d="M94.8013 20.9542H89.1568L87.6672 23.5441H82.3951L91.8419 8.71092H96.7416L100.25 23.5441H95.2717L94.8013 20.9542ZM94.0958 17.344L93.3902 13.5572L91.2147 17.344H94.0958Z" fill="white"/>
<path d="M104.581 12.5762H100.25L101.034 8.6913H114.694L113.91 12.5762H109.579L107.404 23.5245H102.406L104.581 12.5762Z" fill="white"/>
<path d="M117.575 23.034C116.439 22.4846 115.557 21.6998 114.949 20.6992C114.342 19.6985 114.028 18.5409 114.028 17.2459C114.028 15.5193 114.42 13.9889 115.224 12.6351C116.027 11.2812 117.125 10.2413 118.555 9.49575C119.967 8.75016 121.574 8.37737 123.377 8.37737C124.886 8.37737 126.199 8.65206 127.336 9.22106C128.473 9.77044 129.355 10.5553 129.962 11.5559C130.57 12.5566 130.883 13.7142 130.883 15.0092C130.883 16.7358 130.491 18.2662 129.688 19.62C128.884 20.9738 127.787 22.0137 126.356 22.7593C124.945 23.5049 123.338 23.8777 121.534 23.8777C120.025 23.8777 118.712 23.5834 117.575 23.034ZM124.024 19.208C124.612 18.7959 125.062 18.2466 125.376 17.5598C125.689 16.8731 125.846 16.1079 125.846 15.2838C125.846 14.4009 125.591 13.7142 125.082 13.1844C124.572 12.6547 123.867 12.3996 122.946 12.3996C122.162 12.3996 121.476 12.5958 120.888 13.0078C120.3 13.4199 119.849 13.9693 119.535 14.656C119.222 15.3427 119.065 16.1079 119.065 16.932C119.065 17.8149 119.32 18.5016 119.829 19.0314C120.339 19.5612 121.045 19.8162 121.966 19.8162C122.75 19.8162 123.436 19.62 124.024 19.208Z" fill="white"/>
<path d="M151.678 8.71092L148.758 23.5441H144.211L145.524 16.7946L141.349 22.1903H139.154L136.861 16.8535L135.528 23.5245H130.981L133.941 8.6913H137.998L141.212 16.5788L147.405 8.6913H151.678V8.71092Z" fill="white"/>
<path d="M154.226 8.71092H159.224L156.264 23.5441H151.266L154.226 8.71092Z" fill="white"/>
<path d="M162.889 23.034C161.732 22.4846 160.85 21.6998 160.223 20.6992C159.596 19.6985 159.282 18.5409 159.282 17.2459C159.282 15.5193 159.674 13.9889 160.478 12.6547C161.281 11.3205 162.379 10.261 163.81 9.51537C165.221 8.76978 166.848 8.37737 168.651 8.37737C170.081 8.37737 171.336 8.63244 172.433 9.14258C173.531 9.65271 174.354 10.3983 174.883 11.3401L171.277 14.1458C170.611 12.9882 169.631 12.3996 168.318 12.3996C167.534 12.3996 166.848 12.5958 166.24 12.9686C165.632 13.3414 165.162 13.8908 164.829 14.5775C164.496 15.2642 164.319 16.0491 164.319 16.9124C164.319 17.7953 164.594 18.482 165.162 19.0118C165.711 19.5415 166.456 19.7966 167.377 19.7966C168.631 19.7966 169.729 19.2276 170.669 18.0896L173.609 20.915C172.747 21.9745 171.767 22.7201 170.669 23.191C169.572 23.6423 168.318 23.8777 166.867 23.8777C165.358 23.8777 164.025 23.5834 162.889 23.034Z" fill="white"/>
</svg>
