<svg width="75" height="75" viewBox="0 0 75 75" fill="none" xmlns="http://www.w3.org/2000/svg">
<rect width="75" height="75" fill="white"/>
<path d="M41.3451 69.9956C41.0106 69.9956 40.718 69.7026 40.718 69.3678C40.718 69.033 40.9688 68.74 41.3451 68.74C43.8116 68.6982 46.2782 68.3634 48.6193 67.7356C48.9538 67.6519 49.2882 67.8612 49.3718 68.196C49.4554 68.5308 49.2464 68.8656 48.9119 68.9493C46.4454 69.5771 43.8952 69.9538 41.3451 69.9956ZM33.4437 69.1586C33.4019 69.1586 33.3601 69.1586 33.3183 69.1586C30.81 68.5726 28.427 67.6519 26.1277 66.5219C25.8351 66.3545 25.7097 65.9778 25.8769 65.6849C26.0441 65.3919 26.4204 65.2663 26.713 65.4337C28.8869 66.5637 31.228 67.4008 33.611 67.9867C33.9454 68.0704 34.1545 68.4052 34.0708 68.74C33.9872 68.9493 33.7364 69.1586 33.4437 69.1586ZM56.1026 65.9778C55.8935 65.9778 55.6845 65.8523 55.5591 65.643C55.3919 65.35 55.4755 64.9734 55.8099 64.806C57.942 63.5923 59.9487 62.1274 61.7464 60.4534C61.9972 60.2023 62.4153 60.2441 62.6243 60.4952C62.8751 60.7463 62.8333 61.1648 62.5825 61.3741C60.7012 63.1319 58.6109 64.6386 56.3952 65.8941C56.3116 65.936 56.228 65.9778 56.1026 65.9778ZM19.8986 62.0437C19.7314 62.0437 19.606 62.0019 19.4806 61.8763C19.0207 61.4578 18.5608 61.0393 18.1428 60.6208C16.7632 59.2397 15.509 57.733 14.4221 56.1426C14.213 55.8497 14.2966 55.473 14.5893 55.2637C14.8819 55.0545 15.2582 55.1382 15.4672 55.4311C16.5123 56.9378 17.7247 58.4026 19.0625 59.7419C19.4806 60.1604 19.8986 60.5789 20.3585 60.9556C20.6093 61.2067 20.6511 61.5834 20.4003 61.8345C20.2331 61.96 20.0659 62.0437 19.8986 62.0437ZM11.2866 49.3626C11.0358 49.3626 10.7849 49.1952 10.7013 48.9441C9.8234 46.5585 9.23812 44.0474 8.94548 41.4944C8.90367 41.1596 9.15451 40.8248 9.48895 40.783C9.8234 40.7411 10.1578 40.9922 10.1997 41.327C10.4505 43.7963 11.0358 46.1819 11.8719 48.4837C11.9973 48.8185 11.8301 49.1533 11.4956 49.2789C11.412 49.3626 11.3284 49.3626 11.2866 49.3626ZM9.69798 34.1285C9.65618 34.1285 9.65618 34.1285 9.61437 34.1285C9.27992 34.0866 9.02909 33.7518 9.07089 33.417C9.44715 30.864 10.116 28.3948 11.0776 26.0092C11.203 25.6744 11.5792 25.507 11.8719 25.6744C12.2063 25.8 12.3318 26.1766 12.2063 26.5114C11.2866 28.7715 10.6595 31.1989 10.2833 33.6263C10.2833 33.9192 10.0324 34.1285 9.69798 34.1285ZM15.509 19.9407C15.3836 19.9407 15.2582 19.8988 15.1328 19.8151C14.8401 19.6059 14.7983 19.2292 15.0073 18.9362C15.9271 17.6807 16.9722 16.467 18.101 15.337C18.7699 14.6673 19.5224 13.9977 20.2331 13.3699C20.4839 13.1607 20.902 13.2025 21.111 13.4536C21.32 13.7048 21.2782 14.1233 21.0274 14.3325C20.3167 14.9185 19.606 15.5462 18.9789 16.2159C17.8919 17.304 16.8886 18.4759 16.0107 19.6896C15.8853 19.857 15.718 19.9407 15.509 19.9407ZM62.9169 16.4251C62.7497 16.4251 62.5825 16.3833 62.4571 16.2577C60.7012 14.4999 58.7781 12.9933 56.6878 11.6959C56.3952 11.5285 56.3116 11.1099 56.4788 10.817C56.646 10.524 57.0641 10.4403 57.3567 10.6077C59.5307 11.947 61.5373 13.5373 63.3768 15.337C63.6276 15.5881 63.6276 15.9648 63.3768 16.2159C63.2096 16.3414 63.0842 16.4251 62.9169 16.4251ZM27.3401 10.231C27.0892 10.231 26.8802 10.1055 26.7548 9.85438C26.5876 9.56141 26.7548 9.18475 27.0474 9.01734C29.3468 7.92919 31.8133 7.134 34.3217 6.58993C34.6561 6.50622 34.9906 6.75733 35.0742 7.09215C35.1578 7.42696 34.907 7.76178 34.5725 7.84548C32.1478 8.34771 29.8066 9.10104 27.5909 10.1473C27.5491 10.1892 27.4237 10.231 27.3401 10.231ZM49.7899 8.55697C49.7481 8.55697 49.6645 8.55697 49.6226 8.51511C47.2815 7.80363 44.815 7.38511 42.3902 7.25956C42.0558 7.25956 41.7631 6.96659 41.8049 6.58993C41.8049 6.25511 42.0976 5.96215 42.4738 6.004C45.024 6.12955 47.5742 6.58993 49.9989 7.30141C50.3333 7.38511 50.5006 7.76178 50.417 8.0966C50.2915 8.34771 50.0407 8.55697 49.7899 8.55697Z" fill="#212239"/>
<path d="M40.4277 42.9201C42.7365 42.9201 44.6083 41.0463 44.6083 38.7349C44.6083 36.4235 42.7365 34.5497 40.4277 34.5497C38.1188 34.5497 36.2471 36.4235 36.2471 38.7349C36.2471 41.0463 38.1188 42.9201 40.4277 42.9201Z" fill="#212239"/>
<path d="M40.4288 43.5479C37.795 43.5479 35.6211 41.3716 35.6211 38.7349C35.6211 36.0982 37.795 33.9219 40.4288 33.9219C43.0625 33.9219 45.2365 36.0982 45.2365 38.7349C45.2365 41.3716 43.1043 43.5479 40.4288 43.5479ZM40.4288 35.1775C38.4639 35.1775 36.8753 36.7679 36.8753 38.7349C36.8753 40.7019 38.4639 42.2923 40.4288 42.2923C42.3936 42.2923 43.9823 40.7019 43.9823 38.7349C43.9823 36.7679 42.3936 35.1775 40.4288 35.1775Z" fill="#212239"/>
<path d="M62.9194 62.2557C64.0738 62.2557 65.0097 61.3188 65.0097 60.1631C65.0097 59.0074 64.0738 58.0705 62.9194 58.0705C61.765 58.0705 60.8291 59.0074 60.8291 60.1631C60.8291 61.3188 61.765 62.2557 62.9194 62.2557Z" fill="#212239"/>
<path d="M62.9203 62.8835C62.2096 62.8835 61.4989 62.5905 60.9972 62.0883C59.9521 61.042 59.9521 59.2842 60.9972 58.2379C61.4989 57.7357 62.2096 57.4427 62.9203 57.4427C63.631 57.4427 64.3417 57.7357 64.8434 58.2379C65.8885 59.2842 65.8885 61.042 64.8434 62.0883C64.3417 62.6324 63.631 62.8835 62.9203 62.8835ZM62.9203 58.6983C62.5441 58.6983 62.1678 58.8657 61.8752 59.1168C61.2899 59.7027 61.2899 60.6235 61.8752 61.1675C62.4186 61.7116 63.3802 61.7116 63.9655 61.1675C64.5507 60.5816 64.5507 59.6609 63.9655 59.0749C63.6728 58.8657 63.2966 58.6983 62.9203 58.6983Z" fill="#212239"/>
</svg>
